<svg height='200' width='200'  fill="#000000" xmlns="http://www.w3.org/2000/svg" xmlns:xlink="http://www.w3.org/1999/xlink" version="1.1" x="0px" y="0px" viewBox="0 0 63 63" enable-background="new 0 0 63 63" xml:space="preserve"><g><rect x="14.6" y="20.7" width="33.8" height="2"></rect><path d="M54.4,20.3v-7.6h-8.7L31.5,0.5L17.4,12.8H8.6v7.6l-8,6.9v35.3h61.7V27.2L54.4,20.3z M60.3,59.1L44.7,43.4l15.7-13.6V59.1z    M18.3,43.4L2.7,59.1V29.9L18.3,43.4z M20,44.6H43l15.9,15.9H4.1L20,44.6z M54.4,23l5.4,4.7l-5.4,4.7V23z M31.5,3.1l11.1,9.6H20.4   L31.5,3.1z M52.4,14.7v19.4l-9.8,8.5H20.4l-9.8-8.5V14.7H52.4z M8.6,32.4l-5.4-4.7L8.6,23V32.4z"></path><rect x="14.6" y="27.7" width="33.8" height="2"></rect><rect x="30.5" y="34.6" width="2" height="2"></rect><rect x="26.5" y="34.6" width="2" height="2"></rect><rect x="34.5" y="34.6" width="2" height="2"></rect></g></svg>